<?xml version="1.0" encoding="utf-8"?>
<svg width="160px" height="36px" viewBox="0 0 160 36" version="1.1" xmlns:xlink="http://www.w3.org/1999/xlink" xmlns="http://www.w3.org/2000/svg">
  <defs>
    <path d="M0 0L160 0L160 36L0 36L0 0Z" id="path_1" />
    <path d="M0 0L126 0L126 27L0 27L0 0Z" id="path_2" />
    <clipPath id="mask_1">
      <use xlink:href="#path_1" />
    </clipPath>
    <clipPath id="mask_2">
      <use xlink:href="#path_2" />
    </clipPath>
  </defs>
  <g id="Group">
    <g id="logo-superzoo">
      <path d="M0 0L160 0L160 36L0 36L0 0Z" id="Background" fill="none" fill-rule="evenodd" stroke="none" />
      <g clip-path="url(#mask_1)">
        <path d="M43.325 10.086C44.631 9.14802 46.273 8.67902 48.317 8.67902C50.83 8.67902 52.975 9.18102 54.784 10.153L54.784 15.179C52.974 14.006 51.031 13.47 48.92 13.504C47.882 13.504 47.345 13.772 47.345 14.274C47.345 14.509 47.513 14.71 47.815 14.911C48.116 15.112 48.552 15.28 49.055 15.414C49.557 15.548 50.093 15.715 50.73 15.916C51.333 16.084 51.97 16.318 52.573 16.62C53.1719 16.8822 53.7348 17.22 54.248 17.625C54.751 18.027 55.153 18.53 55.454 19.2C55.789 19.837 55.924 20.607 55.924 21.412C55.924 25.232 53.444 27.142 48.518 27.142C45.838 27.142 43.492 26.572 41.515 25.466L41.515 20.206C43.626 21.579 45.771 22.283 47.949 22.283C48.686 22.283 49.222 22.216 49.489 22.082C49.7639 21.9763 49.9401 21.7062 49.926 21.412C49.926 21.143 49.724 20.909 49.289 20.674C48.7947 20.4081 48.2641 20.216 47.714 20.104C47.0072 19.9148 46.3134 19.68 45.6371 19.401C44.899 19.099 44.196 18.764 43.559 18.362C42.8971 17.9504 42.3541 17.373 41.984 16.687C41.549 15.95 41.348 15.112 41.348 14.14C41.381 12.364 42.018 10.99 43.325 10.086L43.325 10.086ZM71.1361 14.61L71.1361 26.706L66.4781 26.706L66.4781 25.499C65.4061 26.572 64.1661 27.108 62.7591 27.108C61.2181 27.108 60.0451 26.638 59.2741 25.734C58.5041 24.829 58.1021 23.724 58.1021 22.417L58.1021 14.609L63.4291 14.609L63.4291 21.512C63.4291 22.282 63.8311 22.685 64.6021 22.685C65.097 22.6914 65.567 22.4684 65.875 22.081L65.8751 14.61L71.1351 14.61L71.1361 14.61ZM82.3291 14.207C84.1381 14.207 85.5121 14.844 86.4491 16.083C87.3891 17.323 87.8571 18.865 87.8571 20.673C87.8571 22.483 87.3881 24.025 86.4501 25.265C85.5121 26.505 84.1381 27.141 82.3291 27.141C80.9551 27.141 79.8491 26.772 79.0111 26.001L79.0111 31.396L73.6841 31.396L73.6841 14.61L78.3411 14.61L78.3411 16.084C79.3461 14.844 80.6871 14.208 82.3291 14.208L82.3291 14.207ZM81.926 19.133C81.625 18.697 81.156 18.496 80.553 18.496C79.849 18.496 79.313 18.764 78.978 19.367L78.978 22.047C79.112 22.282 79.313 22.483 79.581 22.651C79.882 22.818 80.184 22.919 80.553 22.919C81.156 22.919 81.625 22.718 81.926 22.282C82.228 21.847 82.396 21.344 82.396 20.741C82.396 20.071 82.228 19.535 81.926 19.133L81.926 19.133ZM89.6661 17.625C90.1021 16.753 90.6381 16.083 91.3081 15.614C91.9781 15.144 92.6821 14.776 93.3861 14.575C94.0899 14.3495 94.825 14.2364 95.5641 14.24C96.6021 14.24 97.5411 14.408 98.3441 14.71C99.1491 15.01 99.7861 15.413 100.255 15.95C100.73 16.456 101.105 17.047 101.36 17.692C101.662 18.362 101.796 19.065 101.762 19.769C101.762 20.506 101.695 21.209 101.561 21.913L94.0891 21.913C94.2901 22.416 94.7261 22.785 95.3621 23.053C95.9991 23.321 96.7361 23.455 97.5401 23.455C98.8471 23.455 100.02 23.287 101.025 22.985L101.025 26.571C99.7851 27.006 98.3111 27.208 96.6021 27.208C95.2281 27.208 93.9891 27.007 92.8821 26.571C91.7683 26.1385 90.8029 25.3937 90.1021 24.426C89.3651 23.421 88.9961 22.148 88.9961 20.674C89.0301 19.467 89.2641 18.462 89.6661 17.624L89.6661 17.625ZM97.038 18.261C96.803 17.892 96.401 17.725 95.832 17.725C95.296 17.725 94.893 17.892 94.558 18.195C94.257 18.495 94.089 18.931 94.089 19.434L97.306 19.434C97.3496 19.0241 97.2553 18.6113 97.038 18.261L97.038 18.261ZM112.884 14.375L112.884 19.367C112.214 19.133 111.477 19.099 110.74 19.2C109.969 19.334 109.399 19.568 109.031 19.97L109.031 26.706L103.703 26.706L103.703 14.609L108.361 14.609L108.361 16.017C109.399 14.71 110.874 14.14 112.884 14.375L112.884 14.375ZM16.653 13.973C15.346 13.57 14.207 13.47 14.207 13.47C13.905 13.872 12.934 14.24 12.163 13.805C11.493 13.436 11.158 12.532 11.459 11.493C11.527 11.258 11.661 11.057 11.795 10.89C11.862 10.823 11.761 10.689 11.695 10.722C11.5211 10.774 11.3682 10.8797 11.258 11.024C10.89 11.426 10.521 12.23 10.688 13.168C9.583 13.638 8.745 13.101 8.478 12.398C8.41285 12.2618 8.37837 12.113 8.377 11.962C8.31 11.258 8.511 10.722 9.047 10.019C9.16338 9.86847 9.29847 9.73338 9.449 9.617C9.549 9.55 9.449 9.416 9.349 9.449C9.13918 9.51784 8.93683 9.60762 8.745 9.717C8.31 10.019 7.941 10.421 7.774 11.091C7.003 10.387 7.304 9.013 8.243 8.477C8.946 8.075 9.617 8.042 10.186 8.042C11.5683 7.5906 13.0339 7.45327 14.476 7.64C17.256 7.975 20.205 9.315 22.148 11.09L25.667 4.624C22.148 1.642 17.927 0 13.202 0C4.926 0 0.034 4.658 0.034 11.057C0.034 15.078 2.647 18.295 4.859 19.669C7.573 21.378 10.253 21.612 12.833 21.947C14.509 22.148 16.151 22.115 17.022 22.148C17.558 22.148 17.892 22.215 17.926 22.517C17.993 22.785 17.726 22.953 17.29 23.12C16.553 23.388 15.413 23.489 14.676 23.556C14.576 23.556 14.476 23.589 14.476 23.69C14.476 23.757 14.542 23.857 14.676 23.89C15.648 24.092 17.223 24.125 18.328 24.092C18.965 24.058 19.3 24.226 19.334 24.561C19.367 24.93 19.099 25.064 18.462 25.265C17.759 25.465 15.95 25.734 14.408 25.7C14.174 25.7 14.174 25.935 14.375 26.002C15.279 26.303 16.519 26.337 17.39 26.404C17.893 26.437 18.195 26.538 18.228 26.806C18.228 27.074 17.993 27.275 17.591 27.409C16.854 27.644 15.514 27.644 14.777 27.644C14.341 27.61 13.906 27.577 13.369 27.51C13.369 27.51 12.431 26.571 11.091 26.17C10.89 26.102 10.756 26.136 10.722 26.203C10.689 26.303 10.89 26.403 11.057 26.504C11.828 27.04 12.264 27.375 12.532 27.778C12.967 28.414 12.632 28.95 12.13 28.85C11.09 28.649 9.181 27.811 7.74 27.14C6.132 26.404 4.859 25.7 3.552 24.56L0 30.995C3.518 34.011 7.74 35.653 12.431 35.653C20.976 35.653 25.633 30.761 25.633 24.595C25.633 20.742 23.388 16.085 16.653 13.974L16.653 13.973Z" id="Shape" fill="#FFFFFF" fill-rule="evenodd" stroke="none" />
      </g>
    </g>
    <g id="superpet-logotipo" transform="translate(34.00003 5.9999084)">
      <path d="M0 0L126 0L126 27L0 27L0 0Z" id="Background" fill="none" fill-rule="evenodd" stroke="none" />
      <g clip-path="url(#mask_2)">
        <g id="Brand" transform="translate(81.00729 1.3693848)">
          <g id="Artboard">
            <path d="M8.46729 5.29272L6.43365 5.29272L6.43365 9.10909L8.46729 9.10909C10.0827 9.10909 10.89 8.47726 10.89 7.21545C10.89 5.93362 10.0827 5.29272 8.46729 5.29272L8.46729 5.29272ZM8.52274 0C14.3527 0 17.2682 2.40544 17.2682 7.21545C17.2682 12.0054 14.3527 14.4 8.52274 14.4L6.43365 14.4L6.43365 19.4982L0 19.4982L0 0L8.52274 0L8.52274 0ZM26.9265 10.1523C26.6665 9.75323 26.2211 9.55414 25.5893 9.55414C25.0138 9.55414 24.5493 9.73141 24.1965 10.0832C23.8438 10.436 23.6674 10.8914 23.6674 11.4487L27.2047 11.4487C27.2784 10.9841 27.1865 10.5523 26.9265 10.1523L26.9265 10.1523ZM18.7938 9.42961C19.2575 8.47325 19.8566 7.73416 20.5902 7.21507C21.3229 6.69415 22.0893 6.3087 22.8875 6.0587C23.6856 5.8078 24.4847 5.68326 25.2829 5.68326C26.4338 5.68326 27.4602 5.85507 28.3602 6.19688C29.2611 6.54143 29.9666 6.99144 30.4775 7.54779C30.9875 8.10597 31.4011 8.75143 31.7166 9.48416C32.0329 10.2187 32.1856 10.9842 32.1765 11.7823C32.1666 12.5814 32.0975 13.3714 31.9675 14.1505L23.7229 14.1505C23.9456 14.6878 24.4102 15.1033 25.1156 15.3896C25.8211 15.6778 26.6293 15.8214 27.5393 15.8214C28.9875 15.8214 30.2684 15.6442 31.3829 15.2923L31.3829 19.2487C30.0275 19.7123 28.402 19.9442 26.5084 19.9442C25.0047 19.9442 23.6393 19.7123 22.4147 19.2487C21.1893 18.7842 20.1629 17.9896 19.3365 16.866C18.5102 15.7423 18.0975 14.3642 18.0975 12.7296C18.0975 11.4851 18.3293 10.386 18.7938 9.42961L18.7938 9.42961ZM41.5154 1.16971L41.5154 6.12788L44.4954 6.12788L44.4954 10.8079L41.5154 10.8079L41.5154 13.8997C41.5154 14.7361 42.0445 15.1524 43.1026 15.1524C43.7336 15.1524 44.2635 15.0788 44.6899 14.9306L44.6899 19.4433C43.3717 19.7952 42.119 19.9715 40.9308 19.9715C39.4081 19.9715 38.1454 19.5861 37.1426 18.8152C36.1399 18.0442 35.6381 16.7224 35.6381 14.847L35.6381 10.8079L33.7726 10.8079L33.7726 6.12788L35.6381 6.12788L35.6381 2.53426L41.5154 1.16971L41.5154 1.16971Z" id="Combined-Shape" fill="#FFFFFF" fill-rule="evenodd" stroke="none" />
          </g>
        </g>
      </g>
    </g>
  </g>
</svg>